<svg width="24" height="24" viewBox="0 0 24 24" fill="none" xmlns="http://www.w3.org/2000/svg">
<path fill-rule="evenodd" clip-rule="evenodd" d="M10.7075 5.2875C10.8975 5.4875 10.9975 5.7375 10.9975 5.9975C10.9975 6.2575 10.8975 6.5075 10.7075 6.7075L6.4075 10.9975L19.9975 10.9975C20.5475 10.9975 20.9975 11.4475 20.9975 11.9975C20.9975 12.5475 20.5475 12.9975 19.9975 12.9975L6.4075 12.9975L10.7075 17.2875C11.0975 17.6775 11.0975 18.3175 10.7075 18.7075C10.3175 19.0975 9.6775 19.0975 9.2875 18.7075L3.2875 12.7075C3.1975 12.6175 3.1275 12.5075 3.0775 12.3875C3.0575 12.3375 3.0375 12.2975 3.0375 12.2475C2.9875 12.0875 2.9875 11.9075 3.0375 11.7475C3.0375 11.6975 3.0575 11.6575 3.0775 11.6075C3.1275 11.4875 3.1975 11.3775 3.2875 11.2875L9.2875 5.2875C9.6775 4.8975 10.3175 4.8975 10.7075 5.2875Z" fill="#313037"/>
</svg>
